<svg width="160" height="54" viewBox="0 0 160 54" fill="none" xmlns="http://www.w3.org/2000/svg">
<g clip-path="url(#clip0_0_415)">
<path d="M119.217 32.9003H123.393V11.7032L119.217 12.0756V32.9003ZM121.292 3.08545C120.913 3.08518 120.539 3.16037 120.19 3.30663C119.841 3.45289 119.525 3.66727 119.26 3.93722C118.995 4.20718 118.786 4.52729 118.647 4.87881C118.507 5.23033 118.439 5.6062 118.446 5.98443C118.446 6.73919 118.746 7.46304 119.279 7.99675C119.813 8.53045 120.537 8.83027 121.292 8.83027C122.046 8.83027 122.77 8.53045 123.304 7.99675C123.838 7.46304 124.138 6.73919 124.138 5.98443C124.111 4.38851 122.861 3.08545 121.292 3.08545ZM155.255 11.7027L149.244 25.6656L142.835 11.7032H134.51V9.86804C134.51 7.68709 135.521 6.7828 137.595 6.7828C138.313 6.7956 139.028 6.89379 139.723 7.07532L140.654 3.75085C139.333 3.31126 137.949 3.09557 136.557 3.11268C132.514 3.11268 130.334 5.7457 130.334 9.57553V11.7032L126.77 11.9957V15.3476H130.334V32.9003H134.509V15.3203H139.961L147.195 30.4004C146.583 31.7302 145.839 33.2197 144.668 34.124C143.631 34.9484 142.301 35.0281 141.025 34.7622L140.041 38.1932C141.928 38.8847 144.296 38.8048 146.051 37.8474C147.966 36.7836 149.242 34.7889 150.094 32.8208L159.67 11.6233H155.228V11.7032L155.255 11.7027ZM105.387 29.7354C101.903 29.7088 98.9774 26.8364 98.9774 22.2885C98.9774 17.714 101.876 14.8681 105.387 14.815C108.871 14.8416 111.797 17.714 111.797 22.2885C111.797 26.8364 108.871 29.7354 105.387 29.7354ZM105.387 11.1181C104.189 11.1066 103.001 11.3334 101.891 11.7855C100.782 12.2375 99.7732 12.9057 98.9243 13.7512V3.69772L95.0151 4.04353V32.9269H98.9243V30.8791C99.7732 31.7245 100.782 32.3927 101.891 32.8447C103.001 33.2967 104.189 33.5236 105.387 33.5121C111.292 33.4855 115.813 28.8311 115.813 22.3151C115.813 15.7991 111.264 11.1711 105.387 11.1181ZM59.7214 14.8681C62.0088 14.8947 64.0834 16.2512 65.201 18.3262L68.5787 16.2251C67.6907 14.6627 66.4016 13.3656 64.8446 12.4679C63.2877 11.5702 61.5193 11.1044 59.7221 11.1186C53.7915 11.1452 49.2965 15.7996 49.2965 22.3156C49.2965 28.8316 53.7903 33.4594 59.7221 33.5126C61.5204 33.5324 63.291 33.069 64.8489 32.1708C66.4069 31.2725 67.695 29.9723 68.5787 28.4061L65.201 26.305C64.084 28.4061 62.0101 29.7631 59.7214 29.7631C56.2374 29.7354 53.3116 26.863 53.3116 22.2885C53.3116 17.7141 56.2374 14.8947 59.7214 14.8681ZM80.5995 29.7354C77.1155 29.7088 74.1897 26.8364 74.1897 22.2885C74.1897 17.714 77.0889 14.8681 80.5995 14.815C84.0836 14.8416 87.0092 17.714 87.0092 22.2885C86.9826 26.8364 84.0838 29.7354 80.5995 29.7354ZM87.0623 13.7512C86.2134 12.9057 85.2049 12.2375 84.0954 11.7855C82.9858 11.3334 81.7975 11.1066 80.5995 11.1181C74.6951 11.1447 70.1738 15.7991 70.1738 22.3151C70.1738 28.8311 74.6677 33.4589 80.5995 33.5121C81.7975 33.5236 82.9858 33.2967 84.0954 32.8447C85.2049 32.3927 86.2134 31.7245 87.0623 30.8791V32.9269H90.9715V11.6766L87.0623 12.0224V13.7512ZM14.375 30.2409L22.1943 38.1665L30.0127 30.2409C30.3527 29.8995 30.7569 29.6286 31.2019 29.4438C31.6469 29.2589 32.124 29.1638 32.6059 29.1638C33.0877 29.1638 33.5648 29.2589 34.0098 29.4438C34.4548 29.6286 34.859 29.8995 35.199 30.2409C35.8894 30.9434 36.2762 31.889 36.2762 32.8739C36.2762 33.8588 35.8894 34.8044 35.199 35.5069L22.2201 48.672L9.18879 35.5068C5.7456 31.9896 3.81703 27.2637 3.81634 22.3417C3.81634 12.0756 12.0345 3.72428 22.1676 3.72428C24.5844 3.72722 26.9765 4.21075 29.2047 5.14676C31.4329 6.08277 33.4527 7.45256 35.1466 9.17642C35.8369 9.87895 36.2237 10.8245 36.2237 11.8094C36.2237 12.7944 35.8369 13.7399 35.1466 14.4425C34.8065 14.7838 34.4024 15.0547 33.9574 15.2396C33.5124 15.4244 33.0353 15.5196 32.5535 15.5196C32.0716 15.5196 31.5945 15.4244 31.1495 15.2396C30.7045 15.0547 30.3004 14.7838 29.9604 14.4425C28.9399 13.4048 27.7227 12.5811 26.3801 12.0194C25.0375 11.4577 23.5964 11.1693 22.141 11.1711C16.0506 11.1711 11.1036 16.1712 11.1036 22.3681C11.1345 25.3167 12.3071 28.1386 14.375 30.2407V30.2409ZM22.1676 14.8681C23.133 14.8728 24.088 15.0678 24.978 15.442C25.8679 15.8163 26.6753 16.3624 27.3539 17.0491C28.0334 17.7378 28.843 18.2846 29.7356 18.6579C30.6282 19.0311 31.586 19.2233 32.5535 19.2233C33.521 19.2233 34.4788 19.0311 35.3714 18.6579C36.264 18.2846 37.0735 17.7378 37.753 17.0491C39.1218 15.6378 39.8874 13.7491 39.8874 11.783C39.8874 9.81702 39.1218 7.92825 37.753 6.51701C35.7121 4.45839 33.2846 2.82312 30.6101 1.70505C27.9355 0.586975 25.0665 0.00812095 22.1676 0.00170904C10.0132 0.000873742 0.119996 10.0017 0.119996 22.3417C0.107687 28.2537 2.4304 33.9315 6.58284 38.1398L22.1676 53.9382L37.753 38.1401C39.1219 36.7289 39.8874 34.8401 39.8874 32.8741C39.8874 30.908 39.1219 29.0193 37.753 27.608C37.0735 26.9193 36.264 26.3725 35.3714 25.9993C34.4788 25.626 33.521 25.4338 32.5535 25.4338C31.586 25.4338 30.6282 25.626 29.7356 25.9993C28.843 26.3725 28.0334 26.9193 27.3539 27.608L22.1676 32.9006L16.9814 27.608C15.6096 26.1993 14.8456 24.3083 14.8538 22.342C14.8367 21.3693 15.0131 20.4029 15.3726 19.4989C15.7322 18.5949 16.2677 17.7713 16.9482 17.076C17.6286 16.3807 18.4404 15.8274 19.3364 15.4484C20.2324 15.0694 21.1947 14.8722 22.1676 14.8681Z" fill="white"/>
</g>
<defs>
<clipPath id="clip0_0_415">
<rect width="159.55" height="53.937" fill="white" transform="translate(0.119141)"/>
</clipPath>
</defs>
</svg>
