<svg width="80" height="80" viewBox="0 0 80 80" fill="none" xmlns="http://www.w3.org/2000/svg">
<g clip-path="url(#clip0_0_323)">
<path d="M28.6483 60.3171C28.0024 60.3171 27.4787 60.8407 27.4787 61.4868V67.6468C27.4787 68.2929 28.0024 68.8165 28.6483 68.8165C29.2943 68.8165 29.818 68.2929 29.818 67.6468V61.4868C29.818 60.8407 29.2943 60.3171 28.6483 60.3171Z" fill="#1E959B"/>
<path d="M51.2895 60.3171C50.6435 60.3171 50.1198 60.8407 50.1198 61.4868V67.6468C50.1198 68.2929 50.6435 68.8165 51.2895 68.8165C51.9355 68.8165 52.4592 68.2929 52.4592 67.6468V61.4868C52.4592 60.8407 51.9355 60.3171 51.2895 60.3171Z" fill="#1E959B"/>
<path d="M74.0175 56.2336L70.101 54.6623V53.662C70.8698 53.2347 71.5601 52.6787 72.141 52.0225C74.6184 52.3149 76.9888 51.326 78.5232 49.3364C80.1101 47.279 80.4402 44.6276 79.4066 42.2438L77.6478 38.1887C77.5156 37.8839 77.4247 37.5625 77.3773 37.2337C76.9983 34.5996 75.6819 32.1892 73.6705 30.4465C71.6591 28.7037 69.0858 27.7441 66.4246 27.7441C63.7634 27.7441 61.1901 28.7037 59.1787 30.4465C57.1675 32.1892 55.8509 34.5995 55.4719 37.2337C55.4245 37.5627 55.3336 37.8841 55.2014 38.1887L53.4428 42.2438C52.4091 44.6275 52.7393 47.2789 54.3261 49.3364C55.6836 51.0964 57.6948 52.0772 59.8556 52.077C60.1343 52.077 60.4158 52.0605 60.6987 52.0273C61.2258 52.6251 61.844 53.1399 62.5326 53.5497V54.6622L58.6162 56.2336C58.3609 56.3361 58.1117 56.4519 57.8687 56.5801C57.1109 55.1864 56.029 53.9675 54.6828 53.0416L49.5816 49.5334C49.6111 48.8891 49.3535 48.2402 48.8287 47.795L46.7558 46.0361C46.5593 45.8692 46.3385 45.7432 46.1052 45.6576V43.2895C48.2962 41.7003 49.8499 39.2858 50.3053 36.5051H50.43C52.6602 36.5051 54.4746 34.6907 54.4746 32.4607C54.4746 31.5086 54.143 30.6327 53.5905 29.9411L54.4266 23.9974C55.0292 19.7127 52.0378 15.7091 47.7579 15.0725L47.5915 15.0479C46.2229 12.8143 44.1033 11.2028 41.5602 10.4816L41.254 10.3947C37.8822 9.43873 34.2756 10.0094 31.3589 11.9607C30.8219 12.3199 30.6778 13.0463 31.037 13.5831C31.3962 14.1199 32.1225 14.2642 32.6596 13.9049C35.0053 12.3356 37.9052 11.8766 40.6158 12.6454L40.922 12.7322C43.05 13.3356 44.7969 14.7419 45.8409 16.692C46.559 18.0336 46.8761 19.5091 46.7845 20.9851L45.9917 20.3036C45.2669 19.6807 44.2013 19.6642 43.458 20.2646L42.4179 21.1047H36.4808C32.6282 21.1047 29.4938 24.2392 29.4938 28.0917V28.4166C29.1836 28.4177 28.882 28.4548 28.5919 28.5223C27.2696 24.7997 27.6425 20.6054 29.63 17.1745C29.9537 16.6154 29.7632 15.8999 29.2042 15.5759C28.6453 15.2523 27.9297 15.4427 27.6058 16.0017C25.2022 20.1511 24.8125 25.2526 26.5405 29.7173C25.8731 30.4387 25.4644 31.4027 25.4644 32.4607C25.4644 34.6907 27.2788 36.5051 29.5089 36.5051H29.6337C30.0891 39.2858 31.6427 41.7003 33.8338 43.2895V45.6576C33.6005 45.743 33.3796 45.8692 33.1833 46.0359L31.1103 47.795C30.5855 48.2402 30.3279 48.8893 30.3574 49.5334L25.2562 53.0416C24.2195 53.7545 23.3393 54.641 22.6431 55.6474C22.1919 55.3981 21.7217 55.1851 21.2348 55.0126L17.7714 53.7859V52.864C19.5355 51.774 20.8038 49.9571 21.157 47.8343H21.6804C23.7326 47.8343 25.4021 46.1647 25.4021 44.1127C25.4021 43.1913 25.065 42.3479 24.5084 41.6972L24.7172 39.2252C25.0074 35.6653 23.4541 32.2885 20.5619 30.1929C17.6697 28.097 13.9771 27.6724 10.6846 29.0566L8.35316 30.0368C4.74324 30.8338 2.33044 34.2929 2.84587 37.9672L3.36739 41.6852C2.8047 42.3374 2.46331 43.1857 2.46331 44.1127C2.46331 46.1647 4.13282 47.8343 6.18505 47.8343H6.70844C7.03876 49.8194 8.1696 51.5363 9.75754 52.6422V53.7859L6.29407 55.0125C5.80904 55.1843 5.33119 55.3995 4.87393 55.6525C4.30859 55.965 4.10366 56.6767 4.4162 57.242C4.62954 57.628 5.02895 57.8459 5.44083 57.8459C5.63219 57.8459 5.82635 57.7988 6.0057 57.6996C6.35083 57.5087 6.71063 57.3465 7.07478 57.2175L10.0676 56.1575C10.6736 57.602 12.1022 58.6191 13.7642 58.6191C15.4262 58.6191 16.8548 57.602 17.4609 56.1575L20.4537 57.2177C20.8301 57.3509 21.1935 57.5166 21.5418 57.7113C21.0772 58.8891 20.8281 60.1582 20.8281 61.4606V68.3998C20.8281 69.0459 21.3518 69.5694 21.9978 69.5694C22.6438 69.5694 23.1675 69.0459 23.1675 68.3998V61.4606C23.1675 58.8661 24.4438 56.4395 26.5815 54.9693L31.4529 51.619L33.4497 54.2887C33.8788 54.8626 34.5518 55.1859 35.246 55.1859C35.4621 55.1859 35.6805 55.1545 35.894 55.0895L38.7996 54.2052V68.8895C38.7996 69.5356 39.3233 70.0591 39.9693 70.0591C40.6152 70.0591 41.1389 69.5356 41.1389 68.8895V54.2052L44.0449 55.0897C44.2584 55.1545 44.4764 55.1859 44.6926 55.1859C45.3866 55.1859 46.0597 54.8624 46.4889 54.2887L48.4854 51.619L53.3569 54.9693C55.4947 56.4395 56.7709 58.8661 56.7709 61.4606V68.3998C56.7709 69.0459 57.2946 69.5694 57.9406 69.5694C58.5865 69.5694 59.1102 69.0459 59.1102 68.3998V61.4606C59.1102 60.5394 58.9853 59.6347 58.7483 58.7669C58.9853 58.6286 59.2319 58.5073 59.4869 58.405L62.8831 57.0422C63.4848 58.3373 64.7972 59.2379 66.3167 59.2379C67.8362 59.2379 69.1485 58.3374 69.7502 57.0424L73.1466 58.405C75.2943 59.2665 76.6818 61.3184 76.6818 63.6323V65.6122C76.6818 66.2583 77.2056 66.7819 77.8515 66.7819C78.4975 66.7819 79.0212 66.2583 79.0212 65.6122V63.6323C79.021 60.3572 77.0569 57.4532 74.0175 56.2336ZM27.8033 32.4605C27.8033 31.5254 28.5601 30.7644 29.4934 30.7561V34.1647C28.5603 34.1566 27.8033 33.3957 27.8033 32.4605ZM21.6801 45.4948H21.2578V42.73H21.6801C22.4424 42.73 23.0625 43.3502 23.0625 44.1124C23.0625 44.8745 22.4424 45.4948 21.6801 45.4948ZM4.80234 44.1125C4.80234 43.3502 5.42243 42.7301 6.18474 42.7301H6.60707V45.4949H6.18474C5.42258 45.4948 4.80234 44.8747 4.80234 44.1125ZM8.02768 36.7852C7.25179 37.8566 6.78268 39.0904 6.6484 40.3906H6.18474C5.97014 40.3906 5.76023 40.41 5.55546 40.4449L5.16229 37.6419C4.81264 35.1497 6.47077 32.8051 8.93706 32.304C9.01254 32.2887 9.08646 32.2659 9.15758 32.236L11.5911 31.2127C14.1242 30.1477 16.9644 30.4748 19.1892 32.0867C21.4139 33.699 22.6088 36.2963 22.3858 39.0311L22.267 40.4371C22.0758 40.4067 21.8799 40.3905 21.6801 40.3905H21.2475C21.1467 39.3987 20.3069 38.6221 19.289 38.6221H16.4007C14.3422 38.6221 12.3052 37.937 10.6652 36.6932L10.3343 36.4423C9.9868 36.1787 9.53983 36.0642 9.10892 36.1285C8.67755 36.1927 8.28345 36.4321 8.02768 36.7852ZM9.92239 38.1573C9.92208 38.1578 9.92192 38.1581 9.92177 38.1584C9.92192 38.1581 9.92224 38.1578 9.92239 38.1573ZM8.94657 41.1691C8.94657 40.3232 9.15041 39.5057 9.54077 38.7696C11.5328 40.1855 13.9546 40.9617 16.4008 40.9617H18.9184V46.6282C18.9184 49.3776 16.6817 51.6143 13.9325 51.6143C11.1833 51.6143 8.94657 49.3776 8.94657 46.6282V41.1691ZM13.7641 56.2798C12.8445 56.2798 12.0966 55.5316 12.0966 54.6123V53.7205C12.6834 53.8726 13.2987 53.9537 13.9325 53.9537C14.4462 53.9537 14.9475 53.9 15.4317 53.7988V54.6123C15.4317 55.5316 14.6836 56.2798 13.7641 56.2798ZM50.4447 34.1647V30.7561C51.3779 30.7642 52.1348 31.5254 52.1348 32.4605C52.1348 33.3957 51.3779 34.1566 50.4447 34.1647ZM52.1095 23.6712L51.4246 28.5401C51.1108 28.4604 50.7825 28.4175 50.4445 28.4163V28.3216C50.4445 26.4358 49.8613 24.6219 48.805 23.1061C49.2655 21.3323 49.2493 19.506 48.7725 17.7702C51.0319 18.7345 52.4667 21.1327 52.1095 23.6712ZM31.8329 34.8066V28.0914C31.8329 25.5286 33.9178 23.4438 36.4805 23.4438H42.8311C43.0985 23.4438 43.3579 23.3521 43.5659 23.1841L44.694 22.2729L45.7418 23.1735C47.2438 24.4645 48.1052 26.3411 48.1052 28.3216V34.8064C48.1052 39.2928 44.4553 42.9427 39.9689 42.9427C35.4825 42.9427 31.8329 39.2928 31.8329 34.8066ZM39.9691 45.2822C41.308 45.2822 42.5875 45.027 43.7655 44.5673V46.066L39.9691 47.9275L36.1727 46.066V44.5673C37.3506 45.0269 38.6302 45.2822 39.9691 45.2822ZM35.2804 52.8306L32.7608 49.4618L34.6006 47.9005L38.7993 49.9592V51.7597L35.2804 52.8306ZM44.6576 52.8306L41.1388 51.7598V49.9593L45.3374 47.9007L47.1772 49.462L44.6576 52.8306ZM56.1783 47.9077C55.1193 46.5347 54.899 44.7655 55.5889 43.1747L57.3475 39.1196C57.5624 38.6243 57.7104 38.102 57.7873 37.567C58.4013 33.3008 62.1144 30.0836 66.4246 30.0836C70.7348 30.0836 74.4479 33.3008 75.0618 37.567C75.1387 38.1018 75.2867 38.6241 75.5016 39.1196L77.2601 43.1747C77.9499 44.7653 77.7297 46.5347 76.6708 47.9077C75.8866 48.9242 74.7754 49.5501 73.5559 49.7003C73.8077 49.0459 73.9719 48.3483 74.0323 47.6212C74.0856 46.9774 73.6069 46.4122 72.9632 46.3589C72.3201 46.3067 71.7544 46.7844 71.7009 47.428C71.4756 50.149 69.1579 52.2804 66.4246 52.2804C63.504 52.2804 61.1282 49.9046 61.1282 46.984V41.3728C61.1282 40.1286 61.4944 38.905 62.1689 37.8663C63.6824 39.0216 65.5481 39.6824 67.4539 39.7328L71.721 39.8454V42.5397C71.721 43.1858 72.2447 43.7094 72.8907 43.7094C73.5367 43.7094 74.0604 43.1858 74.0604 42.5397V39.5286C74.0604 38.4285 73.1989 37.5441 72.0992 37.5152L67.5155 37.3945C66.0313 37.3552 64.5798 36.8177 63.4284 35.8811L63.1261 35.6352C62.7696 35.3453 62.3219 35.2124 61.8647 35.2615C61.4079 35.3103 60.9983 35.5349 60.7114 35.8935C59.4714 37.4427 58.7884 39.3887 58.7884 41.3733V46.9844C58.7884 47.94 58.9663 48.8544 59.2883 49.6981C58.071 49.5468 56.9613 48.923 56.1783 47.9077ZM66.3165 56.8984C65.5197 56.8984 64.8714 56.2503 64.8714 55.4533V54.4607C65.3731 54.5647 65.8925 54.6199 66.4244 54.6199C66.8795 54.6199 67.326 54.5772 67.7615 54.4986V55.4535C67.7616 56.2503 67.1133 56.8984 66.3165 56.8984Z" fill="#1E959B"/>
<path d="M2.507 59.2599C1.92559 58.9778 1.22613 59.2214 0.944472 59.8028C0.317839 61.0974 0 62.482 0 63.9182V67.6468C0 68.2929 0.523701 68.8165 1.16967 68.8165C1.81564 68.8165 2.33935 68.2929 2.33935 67.6468V63.9182C2.33935 62.838 2.57843 61.7966 3.05019 60.8223C3.3317 60.2409 3.08856 59.5413 2.507 59.2599Z" fill="#1E959B"/>
</g>
<defs>
<clipPath id="clip0_0_323">
<rect width="80" height="80" fill="white"/>
</clipPath>
</defs>
</svg>
