<svg width="80" height="80" viewBox="0 0 80 80" fill="none" xmlns="http://www.w3.org/2000/svg">
<g clip-path="url(#clip0_0_310)">
<path d="M57.0729 0H9.79356C4.71907 0.00656658 0.606908 4.11872 0.600342 9.19321V56.3636C0.606908 61.4381 4.71907 65.5502 9.79356 65.5568H24.24V62.9302H9.79356C6.1688 62.9259 3.23124 59.9883 3.22697 56.3636V34.1462H11.6611C12.4394 34.0893 13.0243 33.4122 12.9673 32.6338C12.9563 32.4837 12.9215 32.3363 12.8641 32.1973C11.6969 29.5411 12.9038 26.4416 15.56 25.2744C18.2162 24.1072 21.3156 25.3142 22.4828 27.9704C23.0746 29.3172 23.0746 30.8505 22.4828 32.1973C22.1584 32.8759 22.4457 33.689 23.1244 34.0134C23.2999 34.0973 23.4914 34.1426 23.6858 34.1464H32.1199V42.0263C31.686 41.9524 31.2467 41.916 30.8066 41.9173C26.4546 41.9158 22.9256 45.4425 22.9239 49.7944C22.9228 52.9298 24.7806 55.7673 27.6547 57.0204L28.7053 54.6144C26.0449 53.4571 24.8263 50.3622 25.9835 47.7018C26.8184 45.7822 28.7134 44.5416 30.8066 44.5439C31.5304 44.5437 32.2462 44.6949 32.9079 44.9878C33.5726 45.2779 34.3468 44.9742 34.6369 44.3095C34.7091 44.144 34.7464 43.9654 34.7466 43.7848V34.1462H41.4248C41.3501 34.5799 41.3127 35.0194 41.3131 35.4595C41.321 39.2015 43.9524 42.425 47.6171 43.1818L48.1424 40.609C45.6993 40.1036 43.9452 37.9543 43.9398 35.4595C43.9396 34.7357 44.0908 34.02 44.3837 33.3582C44.6738 32.6935 44.3701 31.9193 43.7054 31.6292C43.5399 31.557 43.3613 31.5198 43.1807 31.5196H34.7466V24.8414C35.1803 24.9161 35.6198 24.9535 36.0599 24.953C40.4119 24.953 43.9398 21.4251 43.9398 17.0731C43.9398 12.7211 40.4119 9.19321 36.0599 9.19321C35.6198 9.19272 35.1803 9.23015 34.7466 9.30484V2.62663H57.0729C60.6977 2.6309 63.6353 5.56846 63.6395 9.19321V31.5196H55.2054C54.4801 31.5199 53.8924 32.1083 53.8927 32.8336C53.8929 33.0141 53.9302 33.1927 54.0024 33.3582C54.2953 34.02 54.4465 34.7357 54.4463 35.4595H57.0729C57.0734 35.0194 57.036 34.5799 56.9613 34.1462H64.9528C65.6781 34.1462 66.2662 33.5582 66.2662 32.8329V9.19321C66.2596 4.11872 62.1474 0.00656658 57.0729 0ZM36.0599 11.8198C38.9612 11.8198 41.3131 14.1718 41.3131 17.0731C41.3131 19.9744 38.9612 22.3264 36.0599 22.3264C35.3361 22.3265 34.6203 22.1753 33.9586 21.8825C33.2939 21.5924 32.5197 21.8961 32.2296 22.5608C32.1574 22.7263 32.1201 22.9049 32.1199 23.0855V31.4106H25.4509C25.5167 31.0125 25.5509 30.6098 25.5534 30.2063C25.5534 30.1826 25.5534 30.1616 25.5534 30.138C25.5534 30.1143 25.5534 30.1104 25.5534 30.0973C25.5534 25.7453 22.0255 22.2174 17.6735 22.2174C13.3215 22.2174 9.79356 25.7453 9.79356 30.0973C9.79356 30.1104 9.79356 30.1248 9.79356 30.138C9.79356 30.1511 9.79356 30.1826 9.79356 30.2063C9.79602 30.6098 9.83016 31.0125 9.89599 31.4106H3.22697V9.19321C3.23124 5.56846 6.1688 2.6309 9.79356 2.62663H32.1199V11.0607C32.1203 11.786 32.7086 12.3737 33.4339 12.3734C33.6145 12.3732 33.7931 12.336 33.9586 12.2637C34.6203 11.9709 35.3361 11.8197 36.0599 11.8198Z" fill="#1E959B"/>
<path d="M76.5901 56.449L65.5491 48.8462L61.3084 37.5162C61.0554 36.8364 60.2993 36.4905 59.6195 36.7435C59.5952 36.7525 59.571 36.7624 59.5472 36.7729L51.0107 40.5487C50.3708 40.8312 50.0648 41.5658 50.3146 42.2192C50.4565 42.5869 50.5891 42.8653 50.7296 43.1543C50.8702 43.4432 51.0002 43.7137 51.1591 44.1406C52.1785 46.8646 50.806 49.9006 48.0872 50.9344C45.3698 51.9507 42.343 50.5719 41.3264 47.8543C41.0715 47.1727 40.961 46.4456 41.0019 45.7192C41.04 44.9949 40.4836 44.3768 39.7593 44.3387C39.5778 44.3292 39.3964 44.3574 39.2263 44.4216L30.1014 47.8586C29.4239 48.1138 29.0808 48.8693 29.3344 49.5475L32.6098 58.2981C32.1756 58.3772 31.7493 58.495 31.3359 58.6501C27.249 60.173 25.1707 64.7207 26.6936 68.8076C28.2166 72.8945 32.7643 74.9728 36.8512 73.4498C37.2719 73.2931 37.6785 73.1007 38.0666 72.8746L40.4148 79.147C40.6693 79.8263 41.4261 80.1706 42.1054 79.9161C42.1062 79.9158 42.1069 79.9155 42.1077 79.9153L55.12 75.0127C55.9374 76.7696 57.4415 78.1126 59.2793 78.7267L60.1093 76.2314C59.0268 75.8667 58.1272 75.0979 57.5983 74.0855L61.5579 72.5949C62.8586 76.2533 66.3234 78.6951 70.2061 78.69V76.0633C66.5887 76.0412 63.6617 73.1141 63.6395 69.4968C63.6395 69.1484 63.501 68.8145 63.2547 68.5683L58.6818 63.9953C58.0038 63.3114 57.9273 62.2348 58.5018 61.4619C58.8364 61.0103 59.3529 60.7289 59.9136 60.6923C60.4753 60.645 61.0283 60.8519 61.4213 61.2557L70.5909 70.4253L72.4479 68.5683L69.7346 65.8549C70.4031 63.8559 70.3619 61.6875 69.6177 59.7152L67.1566 53.142L75.093 58.6067C76.1449 59.3452 76.7717 60.5496 76.7727 61.8349V78.799H79.3993V61.8349C79.3975 59.6888 78.349 57.6786 76.5901 56.449ZM67.1579 60.6358C67.5207 61.6001 67.652 62.636 67.5414 63.6604L63.2784 59.3987C61.5187 57.594 58.6294 57.5577 56.8247 59.3173C55.0201 61.0769 54.9838 63.9662 56.7433 65.7709C56.7701 65.7983 56.7971 65.8256 56.8247 65.8523L60.9787 70.0063L42.419 76.9971L39.9158 70.3084C39.76 69.8927 39.4047 69.5841 38.9715 69.4876C38.8779 69.4669 38.7824 69.4562 38.6865 69.4561C38.3429 69.4557 38.0129 69.5902 37.7672 69.8303C35.6583 71.8228 32.3333 71.7284 30.3409 69.6194C28.3484 67.5105 28.4428 64.1856 30.5518 62.1931C31.0479 61.7244 31.6304 61.357 32.267 61.1111C32.6852 60.9561 33.1218 60.8573 33.5659 60.8169C33.8391 60.7834 34.1145 60.7742 34.3893 60.7893C35.1136 60.8272 35.7317 60.2709 35.7696 59.5466C35.7792 59.3665 35.7514 59.1864 35.6882 59.0177L32.2578 49.8586L38.5118 47.5038C39.3327 51.7777 43.4627 54.5768 47.7366 53.7562C48.1733 53.6723 48.6021 53.5516 49.0184 53.3953C53.0908 51.8502 55.1493 47.305 53.6242 43.225C53.5033 42.902 53.3943 42.6459 53.2893 42.4173L59.3305 39.7421L67.1579 60.6358Z" fill="#1E959B"/>
</g>
<defs>
<clipPath id="clip0_0_310">
<rect width="80" height="80" fill="white"/>
</clipPath>
</defs>
</svg>
