<svg width="80" height="80" viewBox="0 0 80 80" fill="none" xmlns="http://www.w3.org/2000/svg">
<g clip-path="url(#clip0_0_249)">
<path d="M32.2697 37.5328C32.0315 37.5328 31.7921 37.4783 31.571 37.3678C31.0416 37.1031 30.7074 36.5621 30.7074 35.9703V32.6864H28.8218C27.0515 32.6864 25.6111 31.2463 25.6111 29.476V12.3835C25.6111 10.6128 27.0518 9.17236 28.8224 9.17236H76.7888C78.5594 9.17236 79.9999 10.6128 79.9999 12.3835V29.4761C79.9999 31.2464 78.5596 32.6866 76.7893 32.6866H39.2538L33.2074 37.2206C32.9318 37.4271 32.6016 37.5328 32.2697 37.5328ZM28.8224 12.2974C28.7747 12.2974 28.7361 12.336 28.7361 12.3835V29.4761C28.7361 29.5233 28.7746 29.5616 28.8218 29.5616H32.2699C33.1327 29.5616 33.8324 30.2611 33.8324 31.1241V32.8456L37.7955 29.8738C38.0658 29.671 38.3949 29.5614 38.7329 29.5614H76.7891C76.8363 29.5614 76.8747 29.5231 76.8747 29.476V12.3835C76.8747 12.336 76.8361 12.2974 76.7886 12.2974H28.8224Z" fill="#1E959B"/>
<path d="M68.7947 18.3521H36.8167C35.9539 18.3521 35.2542 17.6524 35.2542 16.7896C35.2542 15.9267 35.9539 15.2271 36.8167 15.2271H68.7947C69.6575 15.2271 70.3572 15.9267 70.3572 16.7896C70.3572 17.6525 69.6577 18.3521 68.7947 18.3521Z" fill="#1E959B"/>
<path d="M68.7946 25.6969H63.1664C62.3036 25.6969 61.6039 24.9972 61.6039 24.1344C61.6039 23.2714 62.3036 22.5719 63.1664 22.5719H68.7946C69.6574 22.5719 70.3571 23.2714 70.3571 24.1344C70.3571 24.9972 69.6575 25.6969 68.7946 25.6969Z" fill="#1E959B"/>
<path d="M55.3548 25.697C54.7018 25.697 54.1042 25.2737 53.8839 24.6601C53.6665 24.0548 53.8534 23.359 54.3442 22.9435C54.8557 22.5106 55.6096 22.4538 56.1793 22.8079C56.7248 23.147 57.0131 23.8091 56.8861 24.4391C56.7406 25.1602 56.0918 25.697 55.3548 25.697Z" fill="#1E959B"/>
<path d="M47.698 25.6969H36.8167C35.9539 25.6969 35.2542 24.9972 35.2542 24.1344C35.2542 23.2714 35.9539 22.5719 36.8167 22.5719H47.698C48.5608 22.5719 49.2605 23.2714 49.2605 24.1344C49.2605 24.9972 48.5608 25.6969 47.698 25.6969Z" fill="#1E959B"/>
<path d="M11.6802 19.7173C6.24413 19.7173 1.82147 15.2947 1.82147 9.85859C1.82147 4.4225 6.24413 0 11.6802 0C17.1165 0 21.5391 4.42266 21.5391 9.85875C21.5391 15.2948 17.1165 19.7173 11.6802 19.7173ZM11.6802 3.125C7.96726 3.125 4.94647 6.14578 4.94647 9.85875C4.94647 13.5717 7.96726 16.5925 11.6802 16.5925C15.3934 16.5925 18.4141 13.5717 18.4141 9.85875C18.4141 6.14578 15.3934 3.125 11.6802 3.125Z" fill="#1E959B"/>
<path d="M21.7977 37.5328H1.5625C0.699531 37.5328 0 36.8331 0 35.9703V25.6659C0 23.2794 1.94172 21.3376 4.32828 21.3376H19.0319C21.4184 21.3376 23.3602 23.2794 23.3602 25.6659V35.9703C23.3602 36.8331 22.6605 37.5328 21.7977 37.5328ZM3.125 34.4078H20.2352V25.6659C20.2352 25.0025 19.6953 24.4626 19.0319 24.4626H4.32828C3.66484 24.4626 3.125 25.0025 3.125 25.6659V34.4078Z" fill="#1E959B"/>
<path d="M47.7302 80C47.3981 80 47.0684 79.8942 46.7927 79.6877L40.7463 75.1536H3.21063C1.44031 75.1536 0 73.7134 0 71.943V54.8506C0 53.08 1.44047 51.6395 3.21109 51.6395H51.1775C52.9481 51.6395 54.3888 53.08 54.3888 54.8506V71.9431C54.3888 73.7134 52.9484 75.1537 51.1781 75.1537H49.2925V78.4375C49.2925 79.0292 48.9581 79.5703 48.4289 79.835C48.2077 79.9455 47.9683 80 47.7302 80ZM3.21109 54.7645C3.16359 54.7645 3.125 54.8031 3.125 54.8506V71.9431C3.125 71.9903 3.16344 72.0287 3.21063 72.0287H41.267C41.605 72.0287 41.9341 72.1383 42.2044 72.3411L46.1675 75.313V73.5912C46.1675 72.7284 46.867 72.0287 47.73 72.0287H51.1781C51.2253 72.0287 51.2638 71.9903 51.2638 71.9431V54.8506C51.2638 54.8031 51.2252 54.7645 51.1775 54.7645H3.21109Z" fill="#1E959B"/>
<path d="M43.1842 60.8192H11.2062C10.3434 60.8192 9.64374 60.1195 9.64374 59.2567C9.64374 58.3939 10.3433 57.6942 11.2062 57.6942H43.1842C44.0472 57.6942 44.7467 58.3939 44.7467 59.2567C44.7467 60.1197 44.0472 60.8192 43.1842 60.8192Z" fill="#1E959B"/>
<path d="M16.8334 68.1639H11.2053C10.3424 68.1639 9.64276 67.4644 9.64276 66.6014C9.64276 65.7386 10.3423 65.0389 11.2053 65.0389H16.8334C17.6962 65.0389 18.3959 65.7386 18.3959 66.6014C18.3959 67.4644 17.6964 68.1639 16.8334 68.1639Z" fill="#1E959B"/>
<path d="M24.6455 68.1641C23.9917 68.1641 23.3964 67.7411 23.1759 67.1272C22.9567 66.5169 23.1473 65.8143 23.6472 65.3997C24.1316 64.9982 24.827 64.9289 25.3817 65.2241C25.9575 65.5305 26.2864 66.1861 26.1911 66.8307C26.0797 67.5858 25.4089 68.1641 24.6455 68.1641Z" fill="#1E959B"/>
<path d="M43.1834 68.1639H32.3021C31.4393 68.1639 30.7396 67.4644 30.7396 66.6014C30.7396 65.7386 31.4393 65.0389 32.3021 65.0389H43.1834C44.0463 65.0389 44.7459 65.7386 44.7459 66.6014C44.7459 67.4644 44.0463 68.1639 43.1834 68.1639Z" fill="#1E959B"/>
<path d="M68.3197 62.1845C62.8834 62.1845 58.4608 57.7619 58.4608 52.3258C58.4608 46.8897 62.8834 42.467 68.3197 42.467C73.7558 42.467 78.1784 46.8897 78.1784 52.3258C78.1784 57.762 73.7558 62.1845 68.3197 62.1845ZM68.3197 45.5922C64.6066 45.5922 61.5858 48.613 61.5858 52.3259C61.5858 56.0389 64.6066 59.0597 68.3197 59.0597C72.0327 59.0597 75.0534 56.0389 75.0534 52.3259C75.0534 48.613 72.0327 45.5922 68.3197 45.5922Z" fill="#1E959B"/>
<path d="M78.4374 80H58.2022C57.3394 80 56.6397 79.3003 56.6397 78.4375V68.1331C56.6397 65.7465 58.5815 63.8048 60.968 63.8048H75.6716C78.0582 63.8048 79.9999 65.7465 79.9999 68.1331V78.4375C79.9999 79.3003 79.3002 80 78.4374 80ZM59.7647 76.875H76.8749V68.1331C76.8749 67.4697 76.3351 66.9298 75.6716 66.9298H60.968C60.3046 66.9298 59.7647 67.4697 59.7647 68.1331V76.875Z" fill="#1E959B"/>
</g>
<defs>
<clipPath id="clip0_0_249">
<rect width="80" height="80" fill="white"/>
</clipPath>
</defs>
</svg>
