<svg width="90" height="84" viewBox="0 0 90 84" fill="none" xmlns="http://www.w3.org/2000/svg">
<g filter="url(#filter0_d_0_1387)">
<path d="M10.6636 25C10.6636 13.9543 19.6179 5 30.6636 5H59.7116C70.7573 5 79.7116 13.9543 79.7116 25V49C79.7116 60.0457 70.7573 69 59.7116 69H30.6636C19.6179 69 10.6636 60.0457 10.6636 49V25Z" fill="url(#paint0_linear_0_1387)"/>
</g>
<path fill-rule="evenodd" clip-rule="evenodd" d="M60.2074 24.54C60.2074 25.2411 59.9843 25.9515 59.4199 26.3673C58.6794 26.9129 57.7641 27.2354 56.7735 27.2354H54.6229C52.966 27.2354 51.6229 25.8923 51.6229 24.2354V21.7452C51.6229 21.2309 51.71 20.7369 51.8702 20.2772C52.174 19.4059 53.1072 19 54.03 19H57.2074C58.8643 19 60.2074 20.3431 60.2074 22V24.54ZM56.7735 27.9217C58.2264 27.9217 60.2074 28.9169 60.2074 30.3697V51C60.2074 52.6569 58.8643 54 57.2074 54H33.6771C32.0203 54 30.6771 52.6569 30.6771 51V22C30.6771 20.3431 32.0203 19 33.6771 19H48.8333C50.09 19 50.9361 20.4885 50.9361 21.7452V24.9217C50.9361 26.5785 52.2793 27.9217 53.9361 27.9217H56.7735ZM32.736 23.804C32.736 23.4249 33.0435 23.1177 33.4228 23.1177H47.1578C47.5371 23.1177 47.8446 23.4249 47.8446 23.804C47.8446 24.183 47.5371 24.4902 47.1578 24.4902H33.4228C33.0435 24.4902 32.736 24.183 32.736 23.804ZM32.736 27.2353C32.736 26.8563 33.0435 26.5491 33.4228 26.5491H47.1578C47.5371 26.5491 47.8446 26.8563 47.8446 27.2353C47.8446 27.6144 47.5371 27.9216 47.1578 27.9216H33.4228C33.0435 27.9216 32.736 27.6144 32.736 27.2353ZM33.4228 29.9804C33.0435 29.9804 32.736 30.2877 32.736 30.6667C32.736 31.0457 33.0435 31.353 33.4228 31.353H57.4591C57.8384 31.353 58.1458 31.0457 58.1458 30.6667C58.1458 30.2877 57.8384 29.9804 57.4591 29.9804H33.4228ZM32.736 34.0981C32.736 33.7191 33.0435 33.4118 33.4228 33.4118H57.4591C57.8384 33.4118 58.1458 33.7191 58.1458 34.0981C58.1458 34.4771 57.8384 34.7844 57.4591 34.7844H33.4228C33.0435 34.7844 32.736 34.4771 32.736 34.0981ZM33.4228 36.8432C33.0435 36.8432 32.736 37.1504 32.736 37.5295C32.736 37.9085 33.0435 38.2157 33.4228 38.2157H57.4591C57.8384 38.2157 58.1458 37.9085 58.1458 37.5295C58.1458 37.1504 57.8384 36.8432 57.4591 36.8432H33.4228ZM32.736 40.9608C32.736 40.5818 33.0435 40.2746 33.4228 40.2746H57.4591C57.8384 40.2746 58.1458 40.5818 58.1458 40.9608C58.1458 41.3398 57.8384 41.6471 57.4591 41.6471H33.4228C33.0435 41.6471 32.736 41.3398 32.736 40.9608ZM33.4228 43.7059C33.0435 43.7059 32.736 44.0132 32.736 44.3922C32.736 44.7712 33.0435 45.0785 33.4228 45.0785H57.4591C57.8384 45.0785 58.1458 44.7712 58.1458 44.3922C58.1458 44.0132 57.8384 43.7059 57.4591 43.7059H33.4228ZM32.736 47.8236C32.736 47.4446 33.0435 47.1373 33.4228 47.1373H57.4591C57.8384 47.1373 58.1458 47.4446 58.1458 47.8236C58.1458 48.2026 57.8384 48.5098 57.4591 48.5098H33.4228C33.0435 48.5098 32.736 48.2026 32.736 47.8236ZM33.4228 50.5687C33.0435 50.5687 32.736 50.8759 32.736 51.2549C32.736 51.634 33.0435 51.9412 33.4228 51.9412H57.4591C57.8384 51.9412 58.1458 51.634 58.1458 51.2549C58.1458 50.8759 57.8384 50.5687 57.4591 50.5687H33.4228Z" fill="#F8FAFD"/>
<defs>
<filter id="filter0_d_0_1387" x="0.663635" y="0" width="89.0479" height="84" filterUnits="userSpaceOnUse" color-interpolation-filters="sRGB">
<feFlood flood-opacity="0" result="BackgroundImageFix"/>
<feColorMatrix in="SourceAlpha" type="matrix" values="0 0 0 0 0 0 0 0 0 0 0 0 0 0 0 0 0 0 127 0" result="hardAlpha"/>
<feOffset dy="5"/>
<feGaussianBlur stdDeviation="5"/>
<feColorMatrix type="matrix" values="0 0 0 0 0.117647 0 0 0 0 0.584314 0 0 0 0 0.607843 0 0 0 0.5 0"/>
<feBlend mode="normal" in2="BackgroundImageFix" result="effect1_dropShadow_0_1387"/>
<feBlend mode="normal" in="SourceGraphic" in2="effect1_dropShadow_0_1387" result="shape"/>
</filter>
<linearGradient id="paint0_linear_0_1387" x1="79.7116" y1="37" x2="10.6636" y2="37" gradientUnits="userSpaceOnUse">
<stop stop-color="#1E959B"/>
<stop offset="1" stop-color="#AFDEDE"/>
</linearGradient>
</defs>
</svg>
