<svg width="47" height="35" viewBox="0 0 47 35" fill="none" xmlns="http://www.w3.org/2000/svg">
<g clip-path="url(#clip0_0_1397)">
<path d="M30.5179 17.9561L43.7432 26.3112V9.24829L30.5179 17.9561Z" fill="#1E959B"/>
<path d="M4.51344 9.24829V26.3112L17.7388 17.9561L4.51344 9.24829Z" fill="#1E959B"/>
<path d="M41.2909 4.2793H6.96484C5.74136 4.2793 4.77042 5.19075 4.58653 6.36438L24.1279 19.2302L43.6692 6.36438C43.4853 5.19075 42.5143 4.2793 41.2909 4.2793Z" fill="#1E959B"/>
<path d="M28.2719 19.436L24.8025 21.7196C24.5965 21.8543 24.3636 21.9205 24.1282 21.9205C23.8929 21.9205 23.6599 21.8543 23.454 21.7196L19.9846 19.4336L4.59183 29.1632C4.78062 30.327 5.74665 31.2311 6.96523 31.2311H41.2913C42.5098 31.2311 43.4759 30.327 43.6647 29.1632L28.2719 19.436Z" fill="#1E959B"/>
</g>
<defs>
<clipPath id="clip0_0_1397">
<rect width="46.3225" height="35" fill="white" transform="translate(0.60321)"/>
</clipPath>
</defs>
</svg>
