<svg width="19" height="32" viewBox="0 0 19 32" fill="none" xmlns="http://www.w3.org/2000/svg">
<path d="M16.0655 0H2.72426C1.44838 0 0.417664 1.034 0.417664 2.309V29.3791C0.417664 30.6501 1.44838 31.6851 2.72426 31.6851H16.0655C17.3394 31.6851 18.3741 30.6511 18.3741 29.3791V2.309C18.3731 1.034 17.3394 0 16.0655 0ZM16.6439 25.6721H2.14786V3.89501H16.6439V25.6721ZM12.488 2.343H6.30274V1.669H12.489L12.488 2.343ZM15.1349 2.035C15.1349 2.361 14.8687 2.62501 14.5434 2.62501C14.2172 2.62501 13.952 2.36 13.952 2.035C13.952 1.71 14.2172 1.445 14.5434 1.445C14.8697 1.444 15.1349 1.709 15.1349 2.035ZM12.2108 29.2251H6.57793V27.4931H12.2108V29.2251Z" fill="#1E959B"/>
</svg>
