<svg width="47" height="35" viewBox="0 0 47 35" fill="none" xmlns="http://www.w3.org/2000/svg">
<g clip-path="url(#clip0_0_381)">
<path d="M29.8939 17.9561L43.1101 26.3112V9.24829L29.8939 17.9561Z" fill="#1E959B"/>
<path d="M3.90751 9.24829V26.3112L17.1237 17.9561L3.90751 9.24829Z" fill="#1E959B"/>
<path d="M40.6594 4.2793H6.35724C5.13461 4.2793 4.16435 5.19075 3.98059 6.36438L23.5083 19.2302L43.0361 6.36438C42.8523 5.19075 41.8821 4.2793 40.6594 4.2793Z" fill="#1E959B"/>
<path d="M27.6495 19.436L24.1825 21.7196C23.9767 21.8543 23.744 21.9205 23.5088 21.9205C23.2735 21.9205 23.0408 21.8543 22.835 21.7196L19.368 19.4336L3.9859 29.1632C4.17456 30.327 5.13992 31.2311 6.35765 31.2311H40.6598C41.8776 31.2311 42.8429 30.327 43.0316 29.1632L27.6495 19.436Z" fill="#1E959B"/>
</g>
<defs>
<clipPath id="clip0_0_381">
<rect width="46.2903" height="35" fill="white"/>
</clipPath>
</defs>
</svg>
